# xmcd
#
# Track frame offsets:
#	299
#	12608
#	29383
#	48085
#	63987
#	78934
#	96832
#	114231
#	127516
#	141301
#	152400
#	172988
#	189490
#	209124
#	223701
#
# Disc length: 3212 seconds
#
# Revision: 1
# Processed by: cddbd v1.5.2PL0 Copyright (c) Steve Scherf et al.
# Submitted via: audiograbber 1.83.01
#
DISCID=c60c890f
DTITLE=King Pepe and Le Rex - 70 Prozent Wasser
DYEAR=2014
DGENRE=Mundart
TTITLE0=Goldfisch
TTITLE1=Doof isch ändlos
TTITLE2=Luschtig si wär anders
TTITLE3=Pepe gschpürt Liebi
TTITLE4=Mama Africa
TTITLE5=Nadescha Tolokonnikova
TTITLE6=I chume nid i Club
TTITLE7=Seife nei
TTITLE8=Chönnti bitte mitcho, we du mi verlahsch?
TTITLE9=Seligpreisungen
TTITLE10=Gränn mer e Fluss
TTITLE11=Tüür and dick
TTITLE12=Nüt schwär
TTITLE13=Letschtlech unerheblech
TTITLE14=Auflösung
EXTD=
EXTT0=
EXTT1=
EXTT2=
EXTT3=
EXTT4=
EXTT5=
EXTT6=
EXTT7=
EXTT8=
EXTT9=
EXTT10=
EXTT11=
EXTT12=
EXTT13=
EXTT14=
PLAYORDER=
